<?xml version="1.0" encoding="utf-8"?>
<!-- Svg Vector Icons : http://www.onlinewebfonts.com/icon -->
<!DOCTYPE svg PUBLIC "-//W3C//DTD SVG 1.1//EN" "http://www.w3.org/Graphics/SVG/1.1/DTD/svg11.dtd">
<svg version="1.1" xmlns="http://www.w3.org/2000/svg" xmlns:xlink="http://www.w3.org/1999/xlink" x="0px" y="0px" viewBox="0 0 1000 1000" enable-background="new 0 0 1000 1000" xml:space="preserve">
<metadata> Svg Vector Icons : http://www.onlinewebfonts.com/icon </metadata>
<g><g transform="translate(0.000000,511.000000) scale(0.100000,-0.100000)"><path d="M4875.2,4953.3c-56.7-54.4-56.7-59-56.7-487.7s0-433.3,56.7-487.7c34-36.3,81.7-56.7,124.8-56.7c43.1,0,90.7,20.4,124.8,56.7c56.7,54.4,56.7,59,56.7,487.7s0,433.3-56.7,487.7c-34,36.3-81.7,56.7-124.8,56.7C4956.9,5010,4909.3,4989.6,4875.2,4953.3z"/><path d="M2050.9,3785c-29.5-29.5-45.4-74.9-45.4-129.3c0-77.1,22.7-106.6,301.7-385.6c263.1-263.1,310.8-301.7,374.3-301.7c99.8,0,186,86.2,186,186c0,63.5-38.6,111.2-301.7,374.3c-279,279-308.5,301.7-385.6,301.7C2125.8,3830.4,2080.4,3814.5,2050.9,3785z"/><path d="M7434.1,3528.7c-263.1-263.1-301.7-310.8-301.7-374.3c0-99.8,86.2-186,186-186c63.5,0,111.1,38.6,374.3,301.7c279,279,301.7,308.5,301.7,385.6c0,54.5-15.9,99.8-45.4,129.3c-29.5,29.5-74.9,45.4-129.3,45.4C7742.6,3830.4,7713.1,3807.7,7434.1,3528.7z"/><path d="M4693.7,3544.5c-669.2-102.1-1168.3-347.1-1612.9-789.4c-385.6-385.6-635.2-843.9-748.6-1374.7c-52.2-240.5-59-798.5-11.3-1032.2c145.2-730.5,583-1386.1,1188.7-1780.8l220-145.2v-460.5c0-460.5,0-462.8,56.7-517.2l54.4-56.7H5000h1159.2l54.5,56.7c56.7,54.5,56.7,56.7,56.7,517.2v460.5l211,138.4c594.3,390.2,989.1,950.5,1168.3,1662.8c49.9,204.2,59,288.1,59,589.8c2.3,381.1-22.7,549-124.8,866.6c-131.6,406.1-351.6,760-664.7,1075.3c-385.7,385.6-837.1,630.6-1379.3,748.6C5378.8,3537.7,4832.1,3565,4693.7,3544.5z M5331.2,3170.2c326.7-45.4,735-204.2,1005-390.2c147.4-102.1,442.4-387.9,562.6-546.7c308.5-412.9,483.2-989.1,453.7-1508.6c-45.4-839.4-546.7-1612.9-1279.5-1985c-65.8-31.7-129.3-79.4-142.9-102.1c-13.6-27.2-22.7-217.8-22.7-465v-421.9H5000h-907.4v421.9c0,247.3-9.1,437.8-22.7,465c-13.6,22.7-77.1,70.3-142.9,102.1c-197.4,99.8-381.1,235.9-564.9,412.9c-834.8,807.6-955,2112-279,3055.7c120.2,167.9,387.9,435.6,555.8,553.5C4117.5,3102.2,4743.7,3251.9,5331.2,3170.2z"/><path d="M4875.2,2775.5c-72.6-70.3-74.9-176.9-4.5-247.3c43.1-43.1,86.2-54.4,247.3-65.8c403.8-31.8,730.5-183.8,1027.6-480.9c297.2-297.2,449.2-623.8,480.9-1027.6c11.3-161.1,22.7-204.2,65.8-247.3c70.3-70.3,177-68.1,247.3,4.5c68.1,65.8,72.6,179.2,22.7,476.4c-140.7,809.9-800.8,1470-1610.6,1610.6C5054.5,2848.1,4941,2843.6,4875.2,2775.5z"/><path d="M882.6,960.7c-36.3-34-56.7-81.7-56.7-124.8c0-43.1,20.4-90.7,56.7-124.8c54.4-56.7,59-56.7,487.7-56.7c428.8,0,433.3,0,487.7,56.7c36.3,34,56.7,81.7,56.7,124.8c0,43.1-20.4,90.7-56.7,124.8c-54.4,56.7-59,56.7-487.7,56.7C941.6,1017.4,937.1,1017.4,882.6,960.7z"/><path d="M8141.9,960.7c-36.3-34-56.7-81.7-56.7-124.8c0-43.1,20.4-90.7,56.7-124.8c54.4-56.7,59-56.7,487.7-56.7c428.8,0,433.3,0,487.7,56.7c36.3,34,56.7,81.7,56.7,124.8c0,43.1-20.4,90.7-56.7,124.8c-54.5,56.7-59,56.7-487.7,56.7C8200.9,1017.4,8196.3,1017.4,8141.9,960.7z"/><path d="M2307.3-1598.2c-279-279-301.7-308.5-301.7-385.6c0-111.2,63.5-174.7,174.7-174.7c77.1,0,106.6,22.7,385.6,301.7c263.1,263.2,301.7,310.8,301.7,374.3c0,99.8-86.2,186-186,186C2618.1-1296.5,2570.4-1335,2307.3-1598.2z"/><path d="M7189.1-1353.2c-36.3-36.3-56.7-79.4-56.7-129.3c0-63.5,38.6-111.1,301.7-374.3c279-279,308.5-301.7,385.7-301.7c111.2,0,174.7,63.5,174.7,174.7c0,77.1-22.7,106.6-301.7,385.6c-263.2,263.1-310.8,301.7-374.3,301.7C7268.5-1296.5,7225.4-1316.9,7189.1-1353.2z"/><path d="M3786.3-3031.9c-36.3-34-56.7-81.7-56.7-124.8s20.4-90.7,56.7-124.8l54.4-56.7H5000h1159.2l54.5,56.7c36.3,34,56.7,81.7,56.7,124.8s-20.4,90.7-56.7,124.8l-54.5,56.7H5000H3840.8L3786.3-3031.9z"/><path d="M3786.3-3757.8c-36.3-34-56.7-81.7-56.7-124.8c0-43.1,20.4-90.7,56.7-124.8l54.4-56.7H5000h1159.2l54.5,56.7c36.3,34,56.7,81.7,56.7,124.8c0,43.1-20.4,90.7-56.7,124.8l-54.5,56.7H5000H3840.8L3786.3-3757.8z"/><path d="M4149.3-4483.7c-36.3-34-56.7-81.7-56.7-124.8s20.4-90.7,56.7-124.8l54.4-56.7H5000h796.2l54.5,56.7c36.3,34,56.7,81.7,56.7,124.8s-20.4,90.7-56.7,124.8l-54.5,56.7H5000h-796.3L4149.3-4483.7z"/></g></g>
</svg>