<?xml version="1.0" encoding="utf-8"?>
<!-- Svg Vector Icons : http://www.onlinewebfonts.com/icon -->
<!DOCTYPE svg PUBLIC "-//W3C//DTD SVG 1.1//EN" "http://www.w3.org/Graphics/SVG/1.1/DTD/svg11.dtd">
<svg version="1.1" xmlns="http://www.w3.org/2000/svg" xmlns:xlink="http://www.w3.org/1999/xlink" x="0px" y="0px" viewBox="0 0 1000 1000" enable-background="new 0 0 1000 1000" xml:space="preserve">
<metadata> Svg Vector Icons : http://www.onlinewebfonts.com/icon </metadata>
<g><g transform="translate(0.000000,511.000000) scale(0.100000,-0.100000)"><path d="M4836,4964.9c-38.3-23.4-87.3-74.6-112.9-112.9c-38.3-66-42.6-106.5-42.6-494.2c0-415.4,2.1-426.1,51.1-500.6c59.7-87.4,168.3-147,268.4-147s208.8,59.6,268.4,147c49,74.6,51.1,85.2,51.1,500.6c0,389.9-4.3,428.2-44.7,494.2C5181.1,5003.3,4978.7,5056.6,4836,4964.9z"/><path d="M1921.6,3684.6c-153.4-83.1-221.6-230.1-179-383.5c19.2-74.6,74.6-142.7,281.2-353.6c142.7-144.9,287.6-279.1,321.7-296.1c89.5-46.9,245-44.7,330.2,6.4c138.5,80.9,189.6,276.9,110.8,430.3c-51.1,98-526.2,568.8-607.2,598.6C2104.8,3716.6,1977,3714.4,1921.6,3684.6z"/><path d="M7801.4,3676.1c-91.6-46.9-539-494.2-588-588c-78.8-151.3-27.7-349.4,108.7-430.3c83.1-46.9,245-51.1,332.3-6.4c34.1,17.1,179,151.3,321.7,296.1c206.7,210.9,262,279.1,281.2,353.6c42.6,155.5-27.7,306.8-183.2,385.6C8008.1,3720.8,7876,3716.6,7801.4,3676.1z"/><path d="M4522.8,3228.7c-598.6-108.7-1201.5-458-1597.8-924.6C2328.5,1599,2136.8,725.5,2369-248c106.5-441,281.2-779.7,681.7-1314.5c296.1-396.2,381.3-528.3,453.8-709.4l55.4-142.8l12.8-884.1c12.8-867,12.8-886.2,63.9-1011.9c68.2-176.8,262-370.7,432.5-432.4c117.2-44.8,155.5-46.9,931-46.9c775.5,0,813.8,2.1,931,46.9c170.4,61.7,364.3,255.6,432.5,432.4c49,125.7,51.1,149.1,63.9,1011.9c12.8,850,14.9,888.4,61.8,1018.3c57.5,153.4,196,372.8,428.2,675.3c441,573.1,630.6,958.7,749.9,1510.4c61.8,294,68.2,894.8,10.7,1163.2c-115.1,539-357.9,994.9-735,1378.4c-392,398.4-943.8,688.1-1482.7,784C5225.8,3271.3,4752.9,3269.2,4522.8,3228.7z M5498.5,2551.3c683.8-174.7,1246.3-694.5,1467.8-1357.1c85.2-253.5,108.7-451.6,93.8-803.1c-23.4-600.8-151.3-922.5-617.8-1544.5c-155.5-206.7-328.1-451.7-381.3-543.2c-104.4-172.6-215.2-432.5-240.7-558.2c-32-164,55.4-149.1-820.2-149.1h-788.2l-12.8,59.7c-85.2,387.7-221.6,639.1-675.3,1237.7c-289.7,381.3-434.6,654-519.8,971.4c-51.1,193.9-55.4,251.4-57.5,617.8c-2.1,360,4.3,423.9,46.9,583.7c221.6,809.5,892.6,1401.8,1742.6,1536C4925.4,2632.2,5270.6,2608.8,5498.5,2551.3z M5762.7-3558.6c4.3-483.6,2.1-509.2-38.3-549.7s-68.2-42.6-720.1-42.6c-577.3,0-683.9,4.3-724.3,34.1c-46.9,32-46.9,40.5-46.9,539c0,279.1,6.4,513.4,14.9,519.8c8.5,8.5,349.4,12.8,760.5,10.7l747.8-6.4L5762.7-3558.6z"/><path d="M718,723.4c-106.5-53.3-191.7-178.9-191.7-279.1c0-85.2,72.4-217.3,153.4-274.8c66-46.9,89.5-49,485.7-55.4c372.8-4.3,423.9-2.1,490,34.1c89.5,49,164,151.3,183.2,251.4c21.3,110.8-61.8,257.8-181.1,321.7c-87.3,46.9-117.2,49-468.7,49C841.5,770.3,805.3,766,718,723.4z"/><path d="M8376.6,740.4c-210.9-93.7-274.8-349.4-125.7-507c112.9-117.2,142.7-123.6,564.6-123.6c345.1,0,398.4,4.3,477.2,42.6c95.9,46.9,181.1,170.4,181.1,264.2c0,127.8-112.9,283.3-240.7,330.2C9143.6,780.9,8455.5,776.7,8376.6,740.4z"/><path d="M2494.7-1607.2c-36.2-17-215.2-183.2-396.2-366.4c-311-313.2-334.5-340.8-347.3-432.5c-21.3-149.1,42.6-283.3,164-338.7c104.4-46.8,193.9-53.3,276.9-14.9c87.3,38.3,688.1,619.9,728.6,705.1c46.9,98,42.6,242.9-8.5,326C2831.3-1596.6,2633.2-1536.9,2494.7-1607.2z"/><path d="M7211.3-1615.8c-151.3-80.9-210.9-274.8-132.1-438.8c44.7-93.7,634.9-666.8,726.5-703c236.5-100.1,481.5,93.7,443.1,349.4c-12.8,91.6-36.2,119.3-345.1,434.6c-183.2,183.2-362.1,349.4-400.5,366.4C7409.4-1562.5,7307.2-1566.7,7211.3-1615.8z"/></g></g>
</svg>